# Blender v2.79 (sub 0) OBJ File: 'HeliPonto.blend'
# www.blender.org
mtllib Helipad.mtl
o Cube.010_Cube.000
v 5.038786 6.971161 -5.697939
v 5.038804 0.459604 5.830108
v 5.038804 0.054100 5.830108
v 5.038786 6.565656 -5.697939
v 4.876659 0.459604 5.830108
v 4.876659 0.054100 5.830108
v 4.876642 6.971161 -5.697939
v 4.876642 6.565656 -5.697939
vt 0.000110 0.060688
vt 0.985129 0.060690
vt 0.999966 0.086958
vt 0.014948 0.086958
vt 0.012879 0.119149
vt 0.000034 0.119149
vt 0.000034 0.087025
vt 0.012879 0.087025
vt 0.985053 0.043498
vt 0.000034 0.043496
vt 0.014872 0.017226
vt 0.999891 0.017228
vt 0.025791 0.119149
vt 0.012946 0.119149
vt 0.012946 0.087025
vt 0.025791 0.087025
vt 0.014796 0.000034
vt 0.999815 0.000036
vn 1.0000 0.0000 -0.0000
vn 0.0000 0.0000 1.0000
vn -1.0000 0.0000 0.0000
vn 0.0000 0.0000 -1.0000
vn 0.0000 -0.8707 -0.4918
vn 0.0000 0.8707 0.4918
usemtl None.001
s 1
f 1/1/1 2/2/1 3/3/1 4/4/1
f 2/5/2 5/6/2 6/7/2 3/8/2
f 5/9/3 7/10/3 8/11/3 6/12/3
f 7/13/4 1/14/4 4/15/4 8/16/4
f 4/17/5 3/18/5 6/12/5 8/11/5
f 7/10/6 5/9/6 2/2/6 1/1/6
o Cube.001_Cube.000
v -6.722546 7.614962 6.544114
v -6.722546 7.614962 6.007227
v -6.722546 7.078076 6.007227
v -6.722546 7.078076 6.544114
v 5.187614 7.614962 6.007227
v 5.187614 7.078076 6.007227
v 5.187614 7.614962 6.544114
v 5.187614 7.078076 6.544114
vt 0.000046 0.172978
vt 0.043173 0.172978
vt 0.043173 0.216105
vt 0.000046 0.216105
vt 0.000076 0.086301
vt 0.956796 0.086630
vt 0.956781 0.129758
vt 0.000061 0.129430
vt 0.999939 0.043518
vt 0.956810 0.043503
vt 0.956825 0.000375
vt 0.999954 0.000390
vt 0.000090 0.043173
vt 0.000105 0.000046
vt 0.000046 0.172557
vt 0.956766 0.172886
vn -1.0000 0.0000 0.0000
vn 0.0000 0.0000 -1.0000
vn 1.0000 0.0000 0.0000
vn 0.0000 0.0000 1.0000
vn 0.0000 -1.0000 0.0000
vn 0.0000 1.0000 0.0000
usemtl None_base.png.000
s 1
f 9/19/7 10/20/7 11/21/7 12/22/7
f 10/23/8 13/24/8 14/25/8 11/26/8
f 13/27/9 15/28/9 16/29/9 14/30/9
f 15/28/10 9/31/10 12/32/10 16/29/10
f 12/33/11 11/26/11 14/25/11 16/34/11
f 15/28/12 13/24/12 10/23/12 9/31/12
o Cube.009_Cube.000
v 4.876668 6.971159 5.830110
v 4.876633 0.459606 -5.697940
v 4.876633 0.054102 -5.697940
v 4.876668 6.565654 5.830110
v 5.038777 0.459606 -5.697941
v 5.038777 0.054102 -5.697941
v 5.038812 6.971159 5.830109
v 5.038812 6.565654 5.830109
vt 0.000110 0.060688
vt 0.985129 0.060690
vt 0.999966 0.086958
vt 0.014948 0.086958
vt 0.012879 0.119149
vt 0.000034 0.119149
vt 0.000034 0.087025
vt 0.012879 0.087025
vt 0.985053 0.043498
vt 0.000034 0.043496
vt 0.014872 0.017226
vt 0.999891 0.017228
vt 0.025791 0.119149
vt 0.012946 0.119149
vt 0.012946 0.087025
vt 0.025791 0.087025
vt 0.014796 0.000034
vt 0.999815 0.000036
vn -1.0000 0.0000 0.0000
vn -0.0000 0.0000 -1.0000
vn 1.0000 0.0000 -0.0000
vn 0.0000 0.0000 1.0000
vn 0.0000 -0.8707 0.4918
vn -0.0000 0.8707 -0.4918
usemtl None.001
s 1
f 17/35/13 18/36/13 19/37/13 20/38/13
f 18/39/14 21/40/14 22/41/14 19/42/14
f 21/43/15 23/44/15 24/45/15 22/46/15
f 23/47/16 17/48/16 20/49/16 24/50/16
f 20/51/17 19/52/17 22/46/17 24/45/17
f 23/44/18 21/43/18 18/36/18 17/35/18
o Cube.015_Cube.000
v -5.967809 6.971161 -5.804729
v 5.101360 0.544946 -5.804758
v 5.101360 0.139441 -5.804758
v -5.967809 6.565656 -5.804729
v 5.101360 0.544946 -5.642614
v 5.101360 0.139441 -5.642614
v -5.967808 6.971161 -5.642585
v -5.967808 6.565656 -5.642585
vt 0.000110 0.060688
vt 0.985129 0.060690
vt 0.999966 0.086958
vt 0.014948 0.086958
vt 0.012879 0.119149
vt 0.000034 0.119149
vt 0.000034 0.087025
vt 0.012879 0.087025
vt 0.985053 0.043498
vt 0.000034 0.043496
vt 0.014872 0.017226
vt 0.999891 0.017228
vt 0.025791 0.119149
vt 0.012946 0.119149
vt 0.012946 0.087025
vt 0.025791 0.087025
vt 0.014796 0.000034
vt 0.999815 0.000036
vn -0.0000 0.0000 -1.0000
vn 1.0000 0.0000 0.0000
vn 0.0000 0.0000 1.0000
vn -1.0000 0.0000 0.0000
vn -0.5021 -0.8648 0.0000
vn 0.5021 0.8648 -0.0000
usemtl None.001
s 1
f 25/53/19 26/54/19 27/55/19 28/56/19
f 26/57/20 29/58/20 30/59/20 27/60/20
f 29/61/21 31/62/21 32/63/21 30/64/21
f 31/65/22 25/66/22 28/67/22 32/68/22
f 28/69/23 27/70/23 30/64/23 32/63/23
f 31/62/24 29/61/24 26/54/24 25/53/24
o Cube.014_Cube.000
v -5.967809 6.971159 5.684587
v 5.101360 0.544944 5.684558
v 5.101360 0.139439 5.684558
v -5.967809 6.565654 5.684587
v 5.101360 0.544944 5.846703
v 5.101360 0.139439 5.846703
v -5.967809 6.971159 5.846732
v -5.967809 6.565654 5.846732
vt 0.000110 0.060688
vt 0.985129 0.060690
vt 0.999966 0.086958
vt 0.014948 0.086958
vt 0.012879 0.119149
vt 0.000034 0.119149
vt 0.000034 0.087025
vt 0.012879 0.087025
vt 0.985053 0.043498
vt 0.000034 0.043496
vt 0.014872 0.017226
vt 0.999891 0.017228
vt 0.025791 0.119149
vt 0.012946 0.119149
vt 0.012946 0.087025
vt 0.025791 0.087025
vt 0.014796 0.000034
vt 0.999815 0.000036
vn -0.0000 0.0000 -1.0000
vn 1.0000 0.0000 0.0000
vn 0.0000 0.0000 1.0000
vn -1.0000 0.0000 0.0000
vn -0.5021 -0.8648 0.0000
vn 0.5021 0.8648 0.0000
usemtl None_Diagonal_Bar.png.001
s 1
f 33/71/25 34/72/25 35/73/25 36/74/25
f 34/75/26 37/76/26 38/77/26 35/78/26
f 37/79/27 39/80/27 40/81/27 38/82/27
f 39/83/28 33/84/28 36/85/28 40/86/28
f 36/87/29 35/88/29 38/82/29 40/81/29
f 39/80/30 37/79/30 34/72/30 33/71/30
o Cube.008_Cube.000
v -6.101948 7.547082 5.977862
v -6.101948 7.547082 5.591170
v -6.101948 0.015073 5.591169
v -6.101948 0.015073 5.977861
v -5.715256 7.547082 5.591170
v -5.715256 0.015073 5.591169
v -5.715256 7.547082 5.977862
v -5.715256 0.015073 5.977861
vt 0.154059 0.999944
vt 0.102725 0.999944
vt 0.102726 0.000056
vt 0.154062 0.000056
vt 0.051391 0.999944
vt 0.051391 0.000056
vt 0.000057 0.999945
vt 0.000056 0.000056
vt 0.205394 0.999945
vt 0.205397 0.000056
vt 0.205508 0.051390
vt 0.205508 0.000056
vt 0.256843 0.000056
vt 0.256843 0.051390
vt 0.256843 0.051501
vt 0.256843 0.102836
vt 0.205508 0.102836
vt 0.205508 0.051501
vn -1.0000 0.0000 0.0000
vn 0.0000 0.0000 -1.0000
vn 1.0000 0.0000 0.0000
vn 0.0000 -0.0000 1.0000
vn 0.0000 -1.0000 0.0000
vn 0.0000 1.0000 0.0000
usemtl None_Vertical_Bar.png.001
s 1
f 41/89/31 42/90/31 43/91/31 44/92/31
f 42/90/32 45/93/32 46/94/32 43/91/32
f 45/93/33 47/95/33 48/96/33 46/94/33
f 47/97/34 41/89/34 44/92/34 48/98/34
f 44/99/35 43/100/35 46/101/35 48/102/35
f 47/103/36 45/104/36 42/105/36 41/106/36
o Cube.013_Cube.000
v 5.158104 6.971159 5.846694
v -5.967808 0.459604 5.846741
v -5.967808 0.054100 5.846741
v 5.158104 6.565654 5.846694
v -5.967809 0.459604 5.684596
v -5.967809 0.054100 5.684596
v 5.158103 6.971159 5.684549
v 5.158103 6.565654 5.684549
vt 0.000110 0.060688
vt 0.985129 0.060690
vt 0.999966 0.086958
vt 0.014948 0.086958
vt 0.012879 0.119149
vt 0.000034 0.119149
vt 0.000034 0.087025
vt 0.012879 0.087025
vt 0.985053 0.043498
vt 0.000034 0.043496
vt 0.014872 0.017226
vt 0.999891 0.017228
vt 0.025791 0.119149
vt 0.012946 0.119149
vt 0.012946 0.087025
vt 0.025791 0.087025
vt 0.014796 0.000034
vt 0.999815 0.000036
vn 0.0000 0.0000 1.0000
vn -1.0000 0.0000 0.0000
vn -0.0000 0.0000 -1.0000
vn 1.0000 0.0000 -0.0000
vn 0.5051 -0.8631 -0.0000
vn -0.5051 0.8631 0.0000
usemtl None_Diagonal_Bar.png.001
s 1
f 49/107/37 50/108/37 51/109/37 52/110/37
f 50/111/38 53/112/38 54/113/38 51/114/38
f 53/115/39 55/116/39 56/117/39 54/118/39
f 55/119/40 49/120/40 52/121/40 56/122/40
f 52/123/41 51/124/41 54/118/41 56/117/41
f 55/116/42 53/115/42 50/108/42 49/107/42
o Cube.007_Cube.000
v -6.101948 7.547084 -5.582323
v -6.101948 7.547084 -5.969015
v -6.101948 0.015075 -5.969016
v -6.101948 0.015075 -5.582324
v -5.715256 7.547084 -5.969015
v -5.715256 0.015075 -5.969016
v -5.715256 7.547084 -5.582323
v -5.715256 0.015075 -5.582324
vt 0.187544 0.998984
vt 0.137536 0.999461
vt 0.122950 -0.000369
vt 0.172959 -0.000846
vt 0.087529 0.999937
vt 0.072941 0.000107
vt 0.037521 1.000414
vt 0.022933 0.000584
vt 0.237552 0.998508
vt 0.222968 -0.001322
vt 0.223825 0.050009
vt 0.223076 -0.001323
vt 0.273084 -0.001799
vt 0.273833 0.049532
vt 0.273835 0.049643
vt 0.274583 0.100975
vt 0.224576 0.101451
vt 0.223827 0.050120
vn -1.0000 0.0000 0.0000
vn 0.0000 0.0000 -1.0000
vn 1.0000 0.0000 0.0000
vn 0.0000 -0.0000 1.0000
vn 0.0000 -1.0000 0.0000
vn 0.0000 1.0000 0.0000
usemtl None_Vertical_Bar.png.001
s 1
f 57/125/43 58/126/43 59/127/43 60/128/43
f 58/126/44 61/129/44 62/130/44 59/127/44
f 61/129/45 63/131/45 64/132/45 62/130/45
f 63/133/46 57/125/46 60/128/46 64/134/46
f 60/135/47 59/136/47 62/137/47 64/138/47
f 63/139/48 61/140/48 58/141/48 57/142/48
o Cube.003_Cube.000
v -6.221895 7.614962 6.047657
v -6.758781 7.614962 6.047657
v -6.758781 7.078076 6.047657
v -6.221895 7.078076 6.047657
v -6.758792 7.614964 -5.862503
v -6.758792 7.078078 -5.862503
v -6.221906 7.614964 -5.862503
v -6.221906 7.078078 -5.862503
vt 0.000046 0.172978
vt 0.043173 0.172978
vt 0.043173 0.216105
vt 0.000046 0.216105
vt 0.000076 0.086301
vt 0.956796 0.086630
vt 0.956781 0.129758
vt 0.000061 0.129430
vt 0.999939 0.043518
vt 0.956810 0.043503
vt 0.956825 0.000375
vt 0.999954 0.000390
vt 0.000090 0.043173
vt 0.000105 0.000046
vt 0.000046 0.172557
vt 0.956766 0.172886
vn 0.0000 0.0000 1.0000
vn -1.0000 0.0000 0.0000
vn 0.0000 0.0000 -1.0000
vn 1.0000 0.0000 -0.0000
vn 0.0000 -1.0000 -0.0000
vn 0.0000 1.0000 0.0000
usemtl None_base.png.000_base.png.003
s 1
f 65/143/49 66/144/49 67/145/49 68/146/49
f 66/147/50 69/148/50 70/149/50 67/150/50
f 69/151/51 71/152/51 72/153/51 70/154/51
f 71/152/52 65/155/52 68/156/52 72/153/52
f 68/157/53 67/150/53 70/149/53 72/158/53
f 71/152/54 69/148/54 66/147/54 65/155/54
o Cube.011_Cube.000
v -6.008607 6.971159 5.830110
v -6.008642 0.459606 -5.697940
v -6.008642 0.054102 -5.697940
v -6.008607 6.565654 5.830110
v -5.846497 0.459606 -5.697941
v -5.846497 0.054102 -5.697941
v -5.846462 6.971159 5.830109
v -5.846462 6.565654 5.830109
vt 0.000110 0.060688
vt 0.985129 0.060690
vt 0.999966 0.086958
vt 0.014948 0.086958
vt 0.012879 0.119149
vt 0.000034 0.119149
vt 0.000034 0.087025
vt 0.012879 0.087025
vt 0.985053 0.043498
vt 0.000034 0.043496
vt 0.014872 0.017226
vt 0.999891 0.017228
vt 0.025791 0.119149
vt 0.012946 0.119149
vt 0.012946 0.087025
vt 0.025791 0.087025
vt 0.014796 0.000034
vt 0.999815 0.000036
vn -1.0000 0.0000 0.0000
vn -0.0000 0.0000 -1.0000
vn 1.0000 0.0000 -0.0000
vn 0.0000 0.0000 1.0000
vn 0.0000 -0.8707 0.4918
vn -0.0000 0.8707 -0.4918
usemtl None_Diagonal_Bar.png.001
s 1
f 73/159/55 74/160/55 75/161/55 76/162/55
f 74/163/56 77/164/56 78/165/56 75/166/56
f 77/167/57 79/168/57 80/169/57 78/170/57
f 79/171/58 73/172/58 76/173/58 80/174/58
f 76/175/59 75/176/59 78/170/59 80/169/59
f 79/168/60 77/167/60 74/160/60 73/159/60
o Cube.002_Cube.000
v 5.879226 7.614962 6.047657
v 5.342340 7.614962 6.047657
v 5.342340 7.078076 6.047657
v 5.879226 7.078076 6.047657
v 5.342330 7.614964 -5.862503
v 5.342330 7.078078 -5.862503
v 5.879216 7.614964 -5.862503
v 5.879216 7.078078 -5.862503
vt 0.000046 0.172978
vt 0.043173 0.172978
vt 0.043173 0.216105
vt 0.000046 0.216105
vt 0.000076 0.086301
vt 0.956796 0.086630
vt 0.956781 0.129758
vt 0.000061 0.129430
vt 0.999939 0.043518
vt 0.956810 0.043503
vt 0.956825 0.000375
vt 0.999954 0.000390
vt 0.000090 0.043173
vt 0.000105 0.000046
vt 0.000046 0.172557
vt 0.956766 0.172886
vn 0.0000 0.0000 1.0000
vn -1.0000 0.0000 0.0000
vn 0.0000 0.0000 -1.0000
vn 1.0000 0.0000 -0.0000
vn 0.0000 -1.0000 -0.0000
vn 0.0000 1.0000 0.0000
usemtl None_base.png.000
s 1
f 81/177/61 82/178/61 83/179/61 84/180/61
f 82/181/62 85/182/62 86/183/62 83/184/62
f 85/185/63 87/186/63 88/187/63 86/188/63
f 87/186/64 81/189/64 84/190/64 88/187/64
f 84/191/65 83/184/65 86/183/65 88/192/65
f 87/186/66 85/182/66 82/181/66 81/189/66
o Cube.006_Cube.000
v 4.829965 7.547082 6.072104
v 4.829965 7.547082 5.685411
v 4.829965 0.015073 5.685410
v 4.829965 0.015073 6.072103
v 5.216657 7.547082 5.685411
v 5.216657 0.015073 5.685410
v 5.216657 7.547082 6.072104
v 5.216657 0.015073 6.072103
vt 0.154059 0.999944
vt 0.102725 0.999944
vt 0.102726 0.000056
vt 0.154062 0.000056
vt 0.051391 0.999944
vt 0.051391 0.000056
vt 0.000057 0.999945
vt 0.000056 0.000056
vt 0.205394 0.999945
vt 0.205397 0.000056
vt 0.205508 0.051390
vt 0.205508 0.000056
vt 0.256843 0.000056
vt 0.256843 0.051390
vt 0.256843 0.051501
vt 0.256843 0.102836
vt 0.205508 0.102836
vt 0.205508 0.051501
vn -1.0000 0.0000 0.0000
vn 0.0000 0.0000 -1.0000
vn 1.0000 0.0000 0.0000
vn 0.0000 -0.0000 1.0000
vn 0.0000 -1.0000 0.0000
vn 0.0000 1.0000 0.0000
usemtl None_Vertical_Bar.png.001
s 1
f 89/193/67 90/194/67 91/195/67 92/196/67
f 90/194/68 93/197/68 94/198/68 91/195/68
f 93/197/69 95/199/69 96/200/69 94/198/69
f 95/201/70 89/193/70 92/196/70 96/202/70
f 92/203/71 91/204/71 94/205/71 96/206/71
f 95/207/72 93/208/72 90/209/72 89/210/72
o Cube.005_Cube.000
v 4.829965 7.547084 -5.582323
v 4.829965 7.547084 -5.969015
v 4.829965 0.015075 -5.969016
v 4.829965 0.015075 -5.582324
v 5.216657 7.547084 -5.969015
v 5.216657 0.015075 -5.969016
v 5.216657 7.547084 -5.582323
v 5.216657 0.015075 -5.582324
vt 0.154059 0.999944
vt 0.102725 0.999944
vt 0.102726 0.000056
vt 0.154062 0.000056
vt 0.051391 0.999944
vt 0.051391 0.000056
vt 0.000057 0.999945
vt 0.000056 0.000056
vt 0.205394 0.999945
vt 0.205397 0.000056
vt 0.205508 0.051390
vt 0.205508 0.000056
vt 0.256843 0.000056
vt 0.256843 0.051390
vt 0.256843 0.051501
vt 0.256843 0.102836
vt 0.205508 0.102836
vt 0.205508 0.051501
vn -1.0000 0.0000 0.0000
vn 0.0000 0.0000 -1.0000
vn 1.0000 0.0000 0.0000
vn 0.0000 -0.0000 1.0000
vn 0.0000 -1.0000 0.0000
vn 0.0000 1.0000 0.0000
usemtl None_Vertical_Bar.png.001
s 1
f 97/211/73 98/212/73 99/213/73 100/214/73
f 98/212/74 101/215/74 102/216/74 99/213/74
f 101/215/75 103/217/75 104/218/75 102/216/75
f 103/219/76 97/211/76 100/214/76 104/220/76
f 100/221/77 99/222/77 102/223/77 104/224/77
f 103/225/78 101/226/78 98/227/78 97/228/78
o Cube.016_Cube.000
v 5.158104 6.971161 -5.642622
v -5.967808 0.459606 -5.642575
v -5.967808 0.054102 -5.642575
v 5.158104 6.565656 -5.642622
v -5.967809 0.459606 -5.804720
v -5.967809 0.054102 -5.804720
v 5.158103 6.971161 -5.804767
v 5.158103 6.565656 -5.804767
vt 0.000110 0.060688
vt 0.985129 0.060690
vt 0.999966 0.086958
vt 0.014948 0.086958
vt 0.012879 0.119149
vt 0.000034 0.119149
vt 0.000034 0.087025
vt 0.012879 0.087025
vt 0.985053 0.043498
vt 0.000034 0.043496
vt 0.014872 0.017226
vt 0.999891 0.017228
vt 0.025791 0.119149
vt 0.012946 0.119149
vt 0.012946 0.087025
vt 0.025791 0.087025
vt 0.014796 0.000034
vt 0.999815 0.000036
vn 0.0000 0.0000 1.0000
vn -1.0000 0.0000 0.0000
vn -0.0000 0.0000 -1.0000
vn 1.0000 0.0000 -0.0000
vn 0.5051 -0.8631 -0.0000
vn -0.5051 0.8631 0.0000
usemtl None.001
s 1
f 105/229/79 106/230/79 107/231/79 108/232/79
f 106/233/80 109/234/80 110/235/80 107/236/80
f 109/237/81 111/238/81 112/239/81 110/240/81
f 111/241/82 105/242/82 108/243/82 112/244/82
f 108/245/83 107/246/83 110/240/83 112/239/83
f 111/238/84 109/237/84 106/230/84 105/229/84
o Cube.001_Cube.003
v 5.793108 7.605365 -6.676517
v 5.793108 7.605363 6.676521
v -6.904831 7.605363 6.676520
v -6.904828 7.605365 -6.676520
v -2.840619 7.605365 -6.676519
v 5.793110 7.792615 -6.676515
v -2.840619 7.792615 -6.676517
v -6.904830 7.792615 -6.676517
v -6.904832 7.792613 6.676519
v 5.793104 7.792613 6.676526
v 6.740942 8.205854 7.673265
v 6.740950 8.205856 -7.673253
v 6.577135 8.351695 -7.600245
v -2.889143 8.351695 -7.600247
v -7.852669 8.205856 -7.673256
v -7.852672 8.205854 7.673257
v -2.889143 8.138538 -7.600252
v 6.577132 8.138536 7.600253
v 6.577128 8.351693 7.600257
v -7.877635 8.351693 7.600250
v -7.877633 8.138536 7.600251
v 6.577132 8.138538 -7.600250
v 6.740946 7.990652 -7.673256
v 6.740946 7.990650 7.673260
v -7.852670 7.990650 7.673258
v -7.852666 7.990652 -7.673260
vt 0.618792 0.332095
vt 0.324180 0.649529
vt 0.029514 0.365857
vt 0.318566 0.043201
vt 0.618361 0.330324
vt 0.646053 0.001448
vt 0.884964 0.001448
vt 0.998347 0.001448
vt 0.998347 0.459642
vt 0.646053 0.459642
vt 0.624350 0.338352
vt 0.323236 0.663842
vt 0.298196 0.687531
vt 0.637909 0.308861
vt 0.624350 0.324046
vt 0.622163 0.336468
vt 0.622122 0.326641
vt 0.018641 0.366951
vt 0.316867 0.028992
vt 0.343146 0.008314
vt 0.006959 0.393841
vt 0.621339 0.327613
vt 0.335812 0.675811
vt 0.344580 0.669935
vt 0.006266 0.341499
vt 0.000103 0.350576
vt 0.621536 0.335370
vt 0.645444 0.316125
vt 0.307996 0.689028
vt 0.000190 0.385400
vt 0.333945 0.000103
vn 0.0000 -1.0000 -0.0000
vn -0.0000 1.0000 0.0000
vn -0.3997 0.9167 -0.0000
vn -0.0000 0.8555 0.5178
vn 0.3997 0.9167 0.0000
vn 0.0000 0.0000 -1.0000
vn -0.9986 -0.0000 0.0525
vn -0.0000 -0.0000 1.0000
vn 0.0000 -0.8661 -0.4999
vn 0.0000 0.8555 -0.5178
vn -0.6886 -0.0000 -0.7252
vn 0.7624 0.0000 -0.6471
vn -0.0000 -0.8661 0.4999
vn 0.7624 -0.0000 0.6471
vn 1.0000 -0.0000 0.0000
vn -1.0000 -0.0000 -0.0000
vn 0.7247 0.0000 -0.6891
vn 0.7247 0.0000 0.6891
vn -0.3766 -0.9264 -0.0000
vn -0.7247 -0.0000 0.6891
vn -0.7247 0.0000 -0.6891
vn 0.3766 -0.9264 -0.0000
usemtl Material.012
s 1
f 113/247/85 114/248/85 115/249/85 116/250/85 117/251/85
f 118/252/86 119/253/86 120/254/86 121/255/86 122/256/86
f 118/257/87 122/258/87 123/259/87 124/260/87
f 119/261/88 118/257/88 125/262/88 126/263/88
f 121/264/89 120/265/89 127/266/89 128/267/89
f 119/261/90 117/251/90 116/250/90 120/265/90
f 117/251/91 119/261/91 126/263/91 129/268/91
f 130/269/92 131/270/92 132/271/92 133/272/92
f 125/262/90 134/273/90 129/268/90 126/263/90
f 113/247/93 117/251/93 129/268/93 134/273/93
f 122/258/94 121/264/94 132/271/94 131/270/94
f 121/264/95 115/249/95 133/272/95 132/271/95
f 114/248/96 122/258/96 131/270/96 130/269/96
f 115/249/97 114/248/97 130/269/97 133/272/97
f 118/257/98 113/247/98 134/273/98 125/262/98
f 135/274/99 124/260/99 123/259/99 136/275/99
f 137/276/100 128/267/100 127/266/100 138/277/100
f 120/265/101 116/250/101 138/277/101 127/266/101
f 115/249/102 121/264/102 128/267/102 137/276/102
f 116/250/103 115/249/103 137/276/103 138/277/103
f 122/258/104 114/248/104 136/275/104 123/259/104
f 113/247/105 118/257/105 124/260/105 135/274/105
f 114/248/106 113/247/106 135/274/106 136/275/106
o Cube.004_Cube.000
v -6.722546 7.614964 -6.140983
v -6.722546 7.614964 -6.677868
v -6.722546 7.078078 -6.677868
v -6.722546 7.078078 -6.140983
v 5.187614 7.614964 -6.677868
v 5.187614 7.078078 -6.677868
v 5.187614 7.614964 -6.140983
v 5.187614 7.078078 -6.140983
vt 0.000046 0.172978
vt 0.043173 0.172978
vt 0.043173 0.216105
vt 0.000046 0.216105
vt 0.000076 0.086301
vt 0.956796 0.086630
vt 0.956781 0.129758
vt 0.000061 0.129430
vt 0.999939 0.043518
vt 0.956810 0.043503
vt 0.956825 0.000375
vt 0.999954 0.000390
vt 0.000090 0.043173
vt 0.000105 0.000046
vt 0.000046 0.172557
vt 0.956766 0.172886
vn -1.0000 0.0000 0.0000
vn 0.0000 0.0000 -1.0000
vn 1.0000 0.0000 0.0000
vn 0.0000 0.0000 1.0000
vn 0.0000 -1.0000 0.0000
vn 0.0000 1.0000 0.0000
usemtl None_base.png.000
s 1
f 139/278/107 140/279/107 141/280/107 142/281/107
f 140/282/108 143/283/108 144/284/108 141/285/108
f 143/286/109 145/287/109 146/288/109 144/289/109
f 145/287/110 139/290/110 142/291/110 146/288/110
f 142/292/111 141/285/111 144/284/111 146/293/111
f 145/287/112 143/283/112 140/282/112 139/290/112
o Cube.012_Cube.000
v -5.846488 6.971161 -5.697939
v -5.846471 0.459604 5.830107
v -5.846471 0.054100 5.830107
v -5.846488 6.565656 -5.697939
v -6.008615 0.459604 5.830107
v -6.008615 0.054100 5.830107
v -6.008633 6.971161 -5.697939
v -6.008633 6.565656 -5.697939
vt 0.000110 0.060688
vt 0.985129 0.060690
vt 0.999966 0.086958
vt 0.014948 0.086958
vt 0.012879 0.119149
vt 0.000034 0.119149
vt 0.000034 0.087025
vt 0.012879 0.087025
vt 0.985053 0.043498
vt 0.000034 0.043496
vt 0.014872 0.017226
vt 0.999891 0.017228
vt 0.025791 0.119149
vt 0.012946 0.119149
vt 0.012946 0.087025
vt 0.025791 0.087025
vt 0.014796 0.000034
vt 0.999815 0.000036
vn 1.0000 0.0000 -0.0000
vn 0.0000 0.0000 1.0000
vn -1.0000 0.0000 0.0000
vn 0.0000 0.0000 -1.0000
vn 0.0000 -0.8707 -0.4918
vn 0.0000 0.8707 0.4918
usemtl None_Diagonal_Bar.png.001
s 1
f 147/294/113 148/295/113 149/296/113 150/297/113
f 148/298/114 151/299/114 152/300/114 149/301/114
f 151/302/115 153/303/115 154/304/115 152/305/115
f 153/306/116 147/307/116 150/308/116 154/309/116
f 150/310/117 149/311/117 152/305/117 154/304/117
f 153/303/118 151/302/118 148/295/118 147/294/118
