# Blender v2.80 (sub 75) OBJ File: 'Wall.blend'
# www.blender.org
mtllib Wall.mtl
g BSP_Wall_2_Cube.001
v -23.000000 0.000000 0.000011
v -22.000002 -0.000000 0.000011
v -22.000000 -0.000000 44.999992
v -22.999998 0.000000 44.999981
v -23.000000 24.000000 0.000000
v -22.000002 24.000000 0.000027
v -22.000000 24.000000 44.999996
v -22.999998 24.000000 44.999985
vt 0.134237 0.993836
vt 0.005148 0.993836
vt 0.005148 0.005935
vt 0.134237 0.005935
vt 0.118490 0.001812
vt 0.118490 0.998188
vt 0.000000 0.998188
vt 0.000000 0.001813
vt 0.999849 0.991163
vt 0.999849 0.000722
vt 0.875682 0.000722
vt 0.875682 0.991163
vt 0.000000 0.995443
vt 0.000000 0.000000
vt 0.997396 0.000000
vt 0.997396 0.995443
vt 1.004821 0.002461
vt 1.004821 0.995284
vt 0.888036 0.995284
vt 0.888036 0.002461
vt -0.000651 0.998698
vt -0.000651 0.003255
vt 0.998698 0.003255
vt 0.998698 0.998698
vn -0.0000 -1.0000 0.0000
vn 0.0000 1.0000 0.0000
vn 0.0000 0.0000 -1.0000
vn 1.0000 0.0000 -0.0000
vn -0.0000 -0.0000 1.0000
vn -1.0000 -0.0000 0.0000
usemtl Wall
s off
f 1/1/1 2/2/1 3/3/1 4/4/1
f 5/5/2 8/6/2 7/7/2 6/8/2
f 1/9/3 5/10/3 6/11/3 2/12/3
f 2/13/4 6/14/4 7/15/4 3/16/4
f 3/17/5 7/18/5 8/19/5 4/20/5
f 5/21/6 1/22/6 4/23/6 8/24/6
g BSP_Wall_1_Cube
v 22.499989 0.000000 -0.499999
v 22.499989 -0.000000 0.499999
v -22.499992 -0.000000 0.499999
v -22.499981 0.000000 -0.499999
v 22.500000 24.000000 -0.499999
v 22.499973 24.000000 0.499999
v -22.499996 24.000000 0.499999
v -22.499987 24.000000 -0.500000
vt 0.134237 0.993836
vt 0.005148 0.993836
vt 0.005148 0.005935
vt 0.134237 0.005935
vt 0.118490 0.001812
vt 0.118490 0.998188
vt 0.000000 0.998188
vt 0.000000 0.001813
vt 0.999849 0.991163
vt 0.999849 0.000722
vt 0.875682 0.000722
vt 0.875682 0.991163
vt 0.000000 0.995443
vt 0.000000 0.000000
vt 0.997396 0.000000
vt 0.997396 0.995443
vt 1.004821 0.002461
vt 1.004821 0.995284
vt 0.888036 0.995284
vt 0.888036 0.002461
vt -0.000651 0.998698
vt -0.000651 0.003255
vt 0.998698 0.003255
vt 0.998698 0.998698
vn 0.0000 -1.0000 -0.0000
vn 0.0000 1.0000 0.0000
vn 1.0000 0.0000 0.0000
vn -0.0000 0.0000 1.0000
vn -1.0000 -0.0000 -0.0000
vn 0.0000 -0.0000 -1.0000
usemtl Wall
s off
f 9/25/7 10/26/7 11/27/7 12/28/7
f 13/29/8 16/30/8 15/31/8 14/32/8
f 9/33/9 13/34/9 14/35/9 10/36/9
f 10/37/10 14/38/10 15/39/10 11/40/10
f 11/41/11 15/42/11 16/43/11 12/44/11
f 13/45/12 9/46/12 12/47/12 16/48/12
g BSP_Wall_3_Cube.002
v 22.000000 0.000000 0.000011
v 22.999998 -0.000000 0.000011
v 23.000000 -0.000000 44.999992
v 22.000002 0.000000 44.999981
v 22.000000 24.000000 0.000000
v 22.999998 24.000000 0.000027
v 23.000000 24.000000 44.999996
v 22.000002 24.000000 44.999985
vt 0.134237 0.993836
vt 0.005148 0.993836
vt 0.005148 0.005935
vt 0.134237 0.005935
vt 0.118490 0.001812
vt 0.118490 0.998188
vt 0.000000 0.998188
vt 0.000000 0.001813
vt 0.999849 0.991163
vt 0.999849 0.000722
vt 0.875682 0.000722
vt 0.875682 0.991163
vt 0.000000 0.995443
vt 0.000000 0.000000
vt 0.997396 0.000000
vt 0.997396 0.995443
vt 1.004821 0.002461
vt 1.004821 0.995284
vt 0.888036 0.995284
vt 0.888036 0.002461
vt -0.000651 0.998698
vt -0.000651 0.003255
vt 0.998698 0.003255
vt 0.998698 0.998698
vn -0.0000 -1.0000 0.0000
vn 0.0000 1.0000 0.0000
vn 0.0000 0.0000 -1.0000
vn 1.0000 -0.0000 -0.0000
vn -0.0000 -0.0000 1.0000
vn -1.0000 -0.0000 0.0000
usemtl Wall
s off
f 17/49/13 18/50/13 19/51/13 20/52/13
f 21/53/14 24/54/14 23/55/14 22/56/14
f 17/57/15 21/58/15 22/59/15 18/60/15
f 18/61/16 22/62/16 23/63/16 19/64/16
f 19/65/17 23/66/17 24/67/17 20/68/17
f 21/69/18 17/70/18 20/71/18 24/72/18
